name C:\Users\antoi\Documents\MyRepositories\upper-imu-dc\Results\main_tracking\Case_99\kinematics.mot
datacolumns 43
datarows 13
range 2.10000000 2.34000000
endheader 
time	clav_prot	clav_elev	scapula_abduction	scapula_elevation	scapula_upward_rot	scapula_winging	plane_elv	shoulder_elv	axial_rot	TrapeziusScapula_M/activation	TrapeziusScapula_S/activation	TrapeziusScapula_I/activation	TrapeziusClavicle_S/activation	SerratusAnterior_I/activation	SerratusAnterior_M/activation	SerratusAnterior_S/activation	Rhomboideus_S/activation	Rhomboideus_I/activation	LevatorScapulae/activation	Coracobrachialis/activation	DeltoideusClavicle_A/activation	DeltoideusScapula_P/activation	DeltoideusScapula_M/activation	LatissimusDorsi_S/activation	LatissimusDorsi_M/activation	LatissimusDorsi_I/activation	PectoralisMajorClavicle_S/activation	PectoralisMajorThorax_I/activation	PectoralisMajorThorax_M/activation	TeresMajor/activation	Infraspinatus_I/activation	Infraspinatus_S/activation	PectoralisMinor/activation	TeresMinor/activation	Subscapularis_S/activation	Subscapularis_M/activation	Subscapularis_I/activation	Supraspinatus_P/activation	Supraspinatus_A/activation	TRIlong/activation	BIC_long/activation	BIC_brevis/activation	
          2.10000000	        -34.14153183	         -3.59518300	        -28.68606501	         -5.67684053	         18.52267873	          2.20398232	         -6.01781773	          5.85417304	         54.66759695	          0.01000054	          0.02394613	          0.01051991	          0.01019265	          0.04886954	          0.03059735	          0.01000025	          0.01000018	          0.01000004	          0.01000009	          0.01000027	          0.03036610	          0.01000013	          0.04576171	          0.01000031	          0.01000023	          0.01000034	          0.01397868	          0.01000002	          0.01198615	          0.01000012	          0.02632481	          0.01836150	          0.01000009	          0.01001661	          0.01000020	          0.01000023	          0.01000017	          0.01000057	          0.01689968	          0.01000009	          0.02819466	          0.01000023	
          2.12000000	        -34.20708652	         -3.91607134	        -28.91723638	         -5.84135073	         18.18159163	          2.39504067	         -6.94929012	          6.18352861	         54.44985808	          0.01000061	          0.02456868	          0.01203056	          0.01001276	          0.05136067	          0.02930573	          0.01000023	          0.01000016	          0.01000000	          0.01000006	          0.01000030	          0.03264032	          0.01000011	          0.04167856	          0.01000032	          0.01000024	          0.01000034	          0.01605227	          0.01000006	          0.01383816	          0.01000012	          0.02696534	          0.01836598	          0.01000010	          0.01000956	          0.01000019	          0.01000021	          0.01000015	          0.01000086	          0.01992486	          0.01000009	          0.03071413	          0.01000027	
          2.14000000	        -34.27369414	         -4.20688833	        -29.11759042	         -5.99911086	         17.90641174	          2.55978423	         -7.87492142	          6.48296409	         54.24697994	          0.01000077	          0.02481166	          0.01382973	          0.01000270	          0.05313957	          0.02809115	          0.01000021	          0.01000015	          0.01000000	          0.01000006	          0.01000038	          0.03458589	          0.01000010	          0.03749002	          0.01000033	          0.01000025	          0.01000035	          0.01805151	          0.01000001	          0.01593837	          0.01000011	          0.02699088	          0.01810022	          0.01000009	          0.01000519	          0.01000017	          0.01000020	          0.01000013	          0.01000031	          0.02279468	          0.01000008	          0.03301085	          0.01000037	
          2.16000000	        -34.33174096	         -4.47619837	        -29.27655096	         -6.15327580	         17.68613885	          2.70698793	         -8.76855704	          6.75401897	         54.08763675	          0.01000085	          0.02459891	          0.01535004	          0.01000117	          0.05404168	          0.02689111	          0.01000021	          0.01000015	          0.01000000	          0.01000006	          0.01000043	          0.03582456	          0.01000010	          0.03371953	          0.01000033	          0.01000026	          0.01000035	          0.01959977	          0.01000005	          0.01773754	          0.01000011	          0.02624795	          0.01756105	          0.01000009	          0.01000219	          0.01000019	          0.01000020	          0.01000014	          0.01003304	          0.02510782	          0.01000009	          0.03468800	          0.01000119	
          2.18000000	        -34.37235567	         -4.73334959	        -29.38797212	         -6.30627620	         17.50416063	          2.84705037	         -9.60621834	          7.00246378	         54.00075562	          0.01000093	          0.02389171	          0.01627156	          0.01000114	          0.05383739	          0.02568341	          0.01000020	          0.01000014	          0.01000000	          0.01000006	          0.01000049	          0.03615290	          0.01000009	          0.03040167	          0.01000034	          0.01000027	          0.01000035	          0.02048533	          0.01000003	          0.01893176	          0.01000011	          0.02481102	          0.01676948	          0.01000009	          0.01000172	          0.01000018	          0.01000019	          0.01000013	          0.01009183	          0.02666220	          0.01000009	          0.03559708	          0.01000077	
          2.20000000	        -34.38811810	         -4.98599842	        -29.45061146	         -6.45850168	         17.34027703	          2.99015782	        -10.36802304	          7.23640774	         54.01294183	          0.01000090	          0.02282448	          0.01638971	          0.01000097	          0.05257233	          0.02453051	          0.01000019	          0.01000014	          0.01000000	          0.01000005	          0.01000053	          0.03551192	          0.01000008	          0.02782214	          0.01000034	          0.01000028	          0.01000036	          0.02062839	          0.01000004	          0.01934562	          0.01000011	          0.02280372	          0.01580302	          0.01000010	          0.01000123	          0.01000018	          0.01000019	          0.01000012	          0.01008125	          0.02731536	          0.01000010	          0.03561222	          0.01000080	
          2.22000000	        -34.37373181	         -5.23807647	        -29.46798960	         -6.60747051	         17.17339927	          3.14441810	        -11.03924182	          7.46437578	         54.14632606	          0.01000085	          0.02164286	          0.01574875	          0.01000088	          0.05058239	          0.02357063	          0.01000019	          0.01000014	          0.01000000	          0.01000005	          0.01000056	          0.03410094	          0.01000010	          0.02621572	          0.01000035	          0.01000029	          0.01000036	          0.02008118	          0.01000006	          0.01902986	          0.01000012	          0.02050071	          0.01478138	          0.01000012	          0.01000093	          0.01000020	          0.01000020	          0.01000013	          0.01001333	          0.02712594	          0.01000010	          0.03486333	          0.01000081	
          2.24000000	        -34.32693775	         -5.48885798	        -29.44785081	         -6.74802494	         16.98505116	          3.31420346	        -11.61142654	          7.69324810	         54.41585883	          0.01000076	          0.02061307	          0.01457460	          0.01000082	          0.04834734	          0.02293676	          0.01000019	          0.01000015	          0.01000000	          0.01000004	          0.01000053	          0.03224766	          0.01000010	          0.02567498	          0.01000035	          0.01000030	          0.01000036	          0.01902186	          0.01000006	          0.01819216	          0.01000012	          0.01821441	          0.01384652	          0.01000013	          0.01000074	          0.01000022	          0.01000023	          0.01000015	          0.01000231	          0.02631163	          0.01000010	          0.03361997	          0.01000141	
          2.26000000	        -34.24939833	         -5.73331498	        -29.40138877	         -6.87344258	         16.76270280	          3.49918423	        -12.08346419	          7.92650449	         54.82676349	          0.01000060	          0.01997221	          0.01315583	          0.01000086	          0.04640946	          0.02264348	          0.01000023	          0.01000016	          0.01000002	          0.01000007	          0.01000040	          0.03034213	          0.01000010	          0.02617699	          0.01000035	          0.01000030	          0.01000036	          0.01772379	          0.01000019	          0.01713995	          0.01000013	          0.01620620	          0.01311932	          0.01000017	          0.01000057	          0.01000029	          0.01000027	          0.01000020	          0.01000048	          0.02515432	          0.01000010	          0.03219206	          0.01000059	
          2.28000000	        -34.14721046	         -5.96361699	        -29.34228063	         -6.97715448	         16.50213180	          3.69434921	        -12.46232239	          8.16307924	         55.37274903	          0.01000059	          0.01982757	          0.01185778	          0.01000085	          0.04505082	          0.02261184	          0.01000024	          0.01000018	          0.01000005	          0.01000010	          0.01000041	          0.02883578	          0.01000010	          0.02716148	          0.01000036	          0.01000031	          0.01000037	          0.01655825	          0.01000013	          0.01626187	          0.01000012	          0.01474517	          0.01264240	          0.01000018	          0.01000056	          0.01000028	          0.01000027	          0.01000019	          0.01000192	          0.02407545	          0.01000009	          0.03104537	          0.01000043	
          2.30000000	        -34.03056611	         -6.17119644	        -29.28535578	         -7.05445262	         16.20811530	          3.89105719	        -12.76225995	          8.39668294	         56.03540989	          0.01000057	          0.02022293	          0.01090337	          0.01000084	          0.04439308	          0.02287889	          0.01000025	          0.01000018	          0.01000001	          0.01000006	          0.01000034	          0.02788900	          0.01000012	          0.02836232	          0.01000036	          0.01000032	          0.01000037	          0.01571424	          0.01000017	          0.01568824	          0.01000012	          0.01389402	          0.01247950	          0.01000021	          0.01000055	          0.01000027	          0.01000028	          0.01000019	          0.01000086	          0.02336538	          0.01000010	          0.03042767	          0.01000045	
          2.32000000	        -33.91215797	         -6.34828976	        -29.24466772	         -7.10326100	         15.89312714	          4.07871794	        -13.00244849	          8.61668185	         56.78815882	          0.01000054	          0.02109017	          0.01030165	          0.01000090	          0.04440970	          0.02322907	          0.01000026	          0.01000019	          0.01000005	          0.01000009	          0.01000034	          0.02764249	          0.01000011	          0.02922629	          0.01000036	          0.01000032	          0.01000037	          0.01536260	          0.01000024	          0.01549734	          0.01000011	          0.01367692	          0.01260066	          0.01000023	          0.01000054	          0.01000028	          0.01000028	          0.01000019	          0.01000065	          0.02324615	          0.01000008	          0.03052128	          0.01000040	
          2.34000000	        -33.80482681	         -6.48910886	        -29.23144005	         -7.12418152	         15.57434720	          4.24682844	        -13.20337886	          8.80984171	         57.60037574	          0.01000054	          0.02234932	          0.01019512	          0.01000106	          0.04475703	          0.02383598	          0.01000027	          0.01000020	          0.01000005	          0.01000010	          0.01000033	          0.02791770	          0.01000011	          0.02960101	          0.01000036	          0.01000032	          0.01000037	          0.01547387	          0.01000027	          0.01572700	          0.01000011	          0.01394759	          0.01290748	          0.01000022	          0.01000055	          0.01000028	          0.01000028	          0.01000018	          0.01000158	          0.02366831	          0.01000008	          0.03121803	          0.01000042	
